<svg width="23" height="32" viewBox="0 0 23 32" fill="none" xmlns="http://www.w3.org/2000/svg">
<path d="M11.8193 0.668945C13.6404 0.7241 15.4166 1.24867 16.9756 2.19141C18.5346 3.13424 19.8241 4.4636 20.7187 6.05078C21.6133 7.63791 22.0836 9.42909 22.083 11.251L22.083 11.252C22.0836 12.9654 21.6669 14.6531 20.8701 16.1699C20.0732 17.6869 18.9192 18.9882 17.5078 19.96L17.1279 20.2217L17.3584 20.6211L21.7441 28.2168L19.0186 28.3809L18.7695 28.3965L18.6318 28.6045L17.126 30.8838L12.043 22.0781L11.8916 21.8164L11.5898 21.8291C11.5639 21.8302 11.5418 21.8322 11.5264 21.834C11.5225 21.8344 11.5187 21.8346 11.5156 21.835L11.417 21.8291L11.1094 21.8115L10.9551 22.0781L5.88086 30.8691L4.41016 28.5479L4.27051 28.3262L4.00879 28.3154L1.26074 28.2021L5.64062 20.6211L5.87109 20.2217L5.49121 19.96C3.99134 18.9256 2.7835 17.5216 1.98535 15.8838C1.18721 14.2459 0.825951 12.429 0.935547 10.6104C1.04521 8.79182 1.62236 7.032 2.61133 5.50195C3.60036 3.97195 4.96791 2.72268 6.58105 1.87598C8.1941 1.02942 9.99848 0.613867 11.8193 0.668945ZM13.1416 2.99609C11.5089 2.67134 9.81627 2.83855 8.27832 3.47559C6.74046 4.11262 5.42578 5.19116 4.50098 6.5752C3.57614 7.95931 3.08301 9.58729 3.08301 11.252C3.08313 13.484 3.96953 15.6248 5.54785 17.2031C7.1262 18.7814 9.26694 19.6679 11.499 19.668C13.1637 19.668 14.7917 19.1748 16.1758 18.25C17.5598 17.3252 18.6384 16.0105 19.2754 14.4727C19.9124 12.9347 20.0787 11.242 19.7539 9.60938C19.4291 7.9768 18.6282 6.47685 17.4512 5.2998C16.2741 4.12275 14.7742 3.32087 13.1416 2.99609Z" stroke="#380C10"/>
</svg>
