<svg width="56" height="51" viewBox="0 0 56 51" fill="none" xmlns="http://www.w3.org/2000/svg">
<rect x="10.2405" y="7.62475" width="35.6557" height="35.6557" rx="17.8278" stroke="#EDE6F2" stroke-width="2.14793"/>
<path d="M37.1888 16.8594H18.9479C18.7463 16.8594 18.553 16.9499 18.4105 17.111C18.2679 17.2721 18.1879 17.4907 18.1879 17.7185V32.3245C18.1879 32.7802 18.348 33.2173 18.6331 33.5395C18.9182 33.8618 19.3048 34.0428 19.7079 34.0428H36.4288C36.8319 34.0428 37.2186 33.8618 37.5036 33.5395C37.7887 33.2173 37.9489 32.7802 37.9489 32.3245V17.7185C37.9489 17.4907 37.8688 17.2721 37.7262 17.111C37.5837 16.9499 37.3904 16.8594 37.1888 16.8594ZM35.2346 18.5777L28.0684 26.0042L20.9022 18.5777H35.2346ZM36.4288 32.3245H19.7079V19.6721L27.5544 27.8031C27.6946 27.9486 27.878 28.0293 28.0684 28.0293C28.2587 28.0293 28.4421 27.9486 28.5823 27.8031L36.4288 19.6721V32.3245Z" fill="#EDE6F2"/>
</svg>
