<svg width="13" height="12" viewBox="0 0 13 12" fill="none" xmlns="http://www.w3.org/2000/svg">
<g clip-path="url(#clip0_2803_4222)">
<path d="M12.0588 5.84314C12.0588 2.61606 9.44277 0 6.2157 0C2.98862 0 0.372559 2.61606 0.372559 5.84314C0.372559 8.75957 2.5093 11.1769 5.30271 11.6153V7.53217H3.8191V5.84314H5.30271V4.55582C5.30271 3.09139 6.17507 2.28248 7.50975 2.28248C8.14884 2.28248 8.81772 2.3966 8.81772 2.3966V3.83456H8.08094C7.35511 3.83456 7.12869 4.28501 7.12869 4.74755V5.84314H8.74924L8.49018 7.53217H7.12869V11.6153C9.92209 11.1769 12.0588 8.75957 12.0588 5.84314Z" fill="#5E5E5E"/>
</g>
<defs>
<clipPath id="clip0_2803_4222">
<rect width="11.6863" height="11.6863" fill="white" transform="translate(0.372559)"/>
</clipPath>
</defs>
</svg>
