<svg width="56" height="50" viewBox="0 0 56 50" fill="none" xmlns="http://www.w3.org/2000/svg">
<path d="M28.0694 17.8477C26.6675 17.8477 25.2971 18.2634 24.1314 19.0422C22.9658 19.8211 22.0573 20.9281 21.5208 22.2233C20.9843 23.5185 20.8439 24.9437 21.1174 26.3187C21.3909 27.6937 22.066 28.9566 23.0573 29.948C24.0486 30.9392 25.3116 31.6143 26.6866 31.8878C28.0615 32.1613 29.4867 32.021 30.7819 31.4845C32.0771 30.948 33.1841 30.0395 33.963 28.8738C34.7419 27.7082 35.1576 26.3378 35.1576 24.9358C35.1556 23.0565 34.4082 21.2548 33.0793 19.9259C31.7505 18.597 29.9487 17.8496 28.0694 17.8477ZM28.0694 29.6613C27.1348 29.6613 26.2212 29.3842 25.4441 28.8649C24.667 28.3457 24.0613 27.6077 23.7036 26.7442C23.346 25.8807 23.2524 24.9306 23.4347 24.014C23.6171 23.0973 24.0671 22.2553 24.728 21.5944C25.3889 20.9336 26.2309 20.4835 27.1475 20.3012C28.0642 20.1189 29.0143 20.2124 29.8777 20.5701C30.7412 20.9278 31.4792 21.5334 31.9985 22.3105C32.5177 23.0876 32.7948 24.0012 32.7948 24.9358C32.7948 26.1891 32.297 27.3911 31.4108 28.2772C30.5246 29.1634 29.3227 29.6613 28.0694 29.6613ZM35.1576 9.57812H20.9812C18.7887 9.58047 16.6867 10.4525 15.1364 12.0028C13.586 13.5531 12.714 15.6552 12.7117 17.8477V32.024C12.714 34.2165 13.586 36.3186 15.1364 37.8689C16.6867 39.4192 18.7887 40.2912 20.9812 40.2936H35.1576C37.3501 40.2912 39.4521 39.4192 41.0024 37.8689C42.5528 36.3186 43.4248 34.2165 43.4271 32.024V17.8477C43.4248 15.6552 42.5528 13.5531 41.0024 12.0028C39.4521 10.4525 37.3501 9.58047 35.1576 9.57812ZM41.0644 32.024C41.0644 33.5906 40.4421 35.093 39.3343 36.2008C38.2266 37.3085 36.7242 37.9308 35.1576 37.9308H20.9812C19.4146 37.9308 17.9122 37.3085 16.8045 36.2008C15.6967 35.093 15.0744 33.5906 15.0744 32.024V17.8477C15.0744 16.2811 15.6967 14.7787 16.8045 13.6709C17.9122 12.5632 19.4146 11.9409 20.9812 11.9409H35.1576C36.7242 11.9409 38.2266 12.5632 39.3343 13.6709C40.4421 14.7787 41.0644 16.2811 41.0644 17.8477V32.024ZM37.5203 17.257C37.5203 17.6075 37.4164 17.9501 37.2217 18.2415C37.0269 18.5329 36.7502 18.76 36.4264 18.8941C36.1026 19.0283 35.7463 19.0634 35.4025 18.995C35.0588 18.9266 34.7431 18.7578 34.4952 18.51C34.2474 18.2622 34.0786 17.9464 34.0103 17.6027C33.9419 17.259 33.977 16.9027 34.1111 16.5789C34.2452 16.2551 34.4723 15.9783 34.7638 15.7836C35.0552 15.5889 35.3978 15.4849 35.7483 15.4849C36.2182 15.4849 36.669 15.6716 37.0013 16.004C37.3336 16.3363 37.5203 16.787 37.5203 17.257Z" fill="#EDE6F2"/>
</svg>
