<svg width="13" height="12" viewBox="0 0 13 12" fill="none" xmlns="http://www.w3.org/2000/svg">
<g clip-path="url(#clip0_2803_4223)">
<path d="M6.58825 1.05222C8.14947 1.05222 8.33435 1.05907 8.94833 1.08646C9.51895 1.11157 9.82709 1.20743 10.0325 1.28732C10.3041 1.39231 10.5004 1.52013 10.7036 1.72327C10.909 1.92869 11.0345 2.1227 11.1395 2.39432C11.2194 2.59974 11.3153 2.91016 11.3404 3.47849C11.3678 4.09476 11.3746 4.27964 11.3746 5.83857C11.3746 7.39979 11.3678 7.58467 11.3404 8.19865C11.3153 8.76927 11.2194 9.07741 11.1395 9.28283C11.0345 9.55444 10.9067 9.75074 10.7036 9.95388C10.4981 10.1593 10.3041 10.2848 10.0325 10.3898C9.82709 10.4697 9.51667 10.5656 8.94833 10.5907C8.33207 10.6181 8.14719 10.6249 6.58825 10.6249C5.02704 10.6249 4.84216 10.6181 4.22818 10.5907C3.65756 10.5656 3.34942 10.4697 3.144 10.3898C2.87238 10.2848 2.67609 10.157 2.47295 9.95388C2.26753 9.74845 2.14199 9.55444 2.037 9.28283C1.95711 9.07741 1.86125 8.76699 1.83614 8.19865C1.80875 7.58238 1.8019 7.3975 1.8019 5.83857C1.8019 4.27736 1.80875 4.09248 1.83614 3.47849C1.86125 2.90787 1.95711 2.59974 2.037 2.39432C2.14199 2.1227 2.26981 1.92641 2.47295 1.72327C2.67837 1.51785 2.87238 1.39231 3.144 1.28732C3.34942 1.20743 3.65984 1.11157 4.22818 1.08646C4.84216 1.05907 5.02704 1.05222 6.58825 1.05222ZM6.58825 0C5.00193 0 4.80336 0.00684743 4.18024 0.0342371C3.55941 0.0616268 3.13259 0.162056 2.76283 0.305852C2.37709 0.456495 2.05069 0.65507 1.72658 0.981465C1.40019 1.30558 1.20161 1.63197 1.05097 2.01543C0.907173 2.38747 0.806744 2.81201 0.779354 3.43284C0.751965 4.05824 0.745117 4.25682 0.745117 5.84314C0.745117 7.42946 0.751965 7.62803 0.779354 8.25115C0.806744 8.87198 0.907173 9.29881 1.05097 9.66857C1.20161 10.0543 1.40019 10.3807 1.72658 10.7048C2.05069 11.0289 2.37709 11.2298 2.76054 11.3781C3.13259 11.5219 3.55713 11.6224 4.17796 11.6498C4.80108 11.6771 4.99965 11.684 6.58597 11.684C8.17229 11.684 8.37087 11.6771 8.99398 11.6498C9.61482 11.6224 10.0416 11.5219 10.4114 11.3781C10.7949 11.2298 11.1213 11.0289 11.4454 10.7048C11.7695 10.3807 11.9703 10.0543 12.1187 9.67085C12.2625 9.29881 12.3629 8.87427 12.3903 8.25343C12.4177 7.63032 12.4245 7.43174 12.4245 5.84542C12.4245 4.2591 12.4177 4.06052 12.3903 3.43741C12.3629 2.81658 12.2625 2.38975 12.1187 2.01999C11.9749 1.63197 11.7763 1.30558 11.4499 0.981465C11.1258 0.657353 10.7994 0.456495 10.416 0.308134C10.0439 0.164338 9.61938 0.0639093 8.99855 0.0365196C8.37315 0.00684743 8.17458 0 6.58825 0Z" fill="#5E5E5E"/>
<path d="M6.58837 2.83984C4.93129 2.83984 3.58691 4.18422 3.58691 5.8413C3.58691 7.49838 4.93129 8.84275 6.58837 8.84275C8.24545 8.84275 9.58982 7.49838 9.58982 5.8413C9.58982 4.18422 8.24545 2.83984 6.58837 2.83984ZM6.58837 7.78825C5.51332 7.78825 4.64142 6.91635 4.64142 5.8413C4.64142 4.76625 5.51332 3.89435 6.58837 3.89435C7.66342 3.89435 8.53532 4.76625 8.53532 5.8413C8.53532 6.91635 7.66342 7.78825 6.58837 7.78825Z" fill="#5E5E5E"/>
<path d="M10.4093 2.72416C10.4093 3.11218 10.0943 3.42488 9.70853 3.42488C9.32051 3.42488 9.00781 3.1099 9.00781 2.72416C9.00781 2.33614 9.32279 2.02344 9.70853 2.02344C10.0943 2.02344 10.4093 2.33842 10.4093 2.72416Z" fill="#5E5E5E"/>
</g>
<defs>
<clipPath id="clip0_2803_4223">
<rect width="11.6863" height="11.6863" fill="white" transform="translate(0.745117)"/>
</clipPath>
</defs>
</svg>
