<svg width="56" height="51" viewBox="0 0 56 51" fill="none" xmlns="http://www.w3.org/2000/svg">
<path d="M39.8284 8.85156H16.3097C15.1 8.85494 13.9409 9.33697 13.0855 10.1923C12.2302 11.0477 11.7481 12.2069 11.7448 13.4165V36.9352C11.7481 38.1449 12.2302 39.304 13.0855 40.1594C13.9409 41.0147 15.1 41.4968 16.3097 41.5001H39.8284C41.0391 41.5001 42.2002 41.0192 43.0563 40.1631C43.9124 39.307 44.3933 38.1459 44.3933 36.9352V13.4165C44.3933 12.2058 43.9124 11.0447 43.0563 10.1886C42.2002 9.33251 41.0391 8.85156 39.8284 8.85156ZM42.5674 36.9352C42.5626 37.6601 42.2725 38.354 41.7598 38.8666C41.2472 39.3793 40.5533 39.6694 39.8284 39.6742H16.3097C15.5848 39.6694 14.8909 39.3793 14.3782 38.8666C13.8656 38.354 13.5755 37.6601 13.5707 36.9352V13.4165C13.5755 12.6916 13.8656 11.9977 14.3782 11.4851C14.8909 10.9724 15.5848 10.6823 16.3097 10.6775H39.8284C40.5533 10.6823 41.2472 10.9724 41.7598 11.4851C42.2725 11.9977 42.5626 12.6916 42.5674 13.4165V36.9352Z" fill="#EDE6F2"/>
<path d="M20.4183 23.4736C20.4183 23.1128 20.5617 22.7668 20.8168 22.5117C21.0719 22.2566 21.4179 22.1133 21.7787 22.1133C22.1395 22.1133 22.4855 22.2566 22.7406 22.5117C22.9957 22.7668 23.1391 23.1128 23.1391 23.4736V32.316C23.1391 32.6768 22.9957 33.0228 22.7406 33.2779C22.4855 33.533 22.1395 33.6763 21.7787 33.6763C21.4179 33.6763 21.0719 33.533 20.8168 33.2779C20.5617 33.0228 20.4183 32.6768 20.4183 32.316V23.4736Z" fill="#EDE6F2"/>
<path d="M21.7787 19.3887C22.53 19.3887 23.1391 18.7796 23.1391 18.0283C23.1391 17.277 22.53 16.668 21.7787 16.668C21.0274 16.668 20.4183 17.277 20.4183 18.0283C20.4183 18.7796 21.0274 19.3887 21.7787 19.3887Z" fill="#EDE6F2"/>
<path d="M35.714 27.0422V32.3203C35.714 32.6811 35.5707 33.0272 35.3156 33.2823C35.0605 33.5374 34.7145 33.6807 34.3537 33.6807C33.9929 33.6807 33.6469 33.5374 33.3918 33.2823C33.1367 33.0272 32.9933 32.6811 32.9933 32.3203V27.0422C32.9933 26.4595 32.7619 25.9007 32.3499 25.4887C31.9378 25.0767 31.379 24.8452 30.7964 24.8452C30.2137 24.8452 29.6549 25.0767 29.2429 25.4887C28.8308 25.9007 28.5994 26.4595 28.5994 27.0422V32.3203C28.5994 32.6811 28.4561 33.0272 28.2009 33.2823C27.9458 33.5374 27.5998 33.6807 27.239 33.6807C26.8782 33.6807 26.5322 33.5374 26.2771 33.2823C26.022 33.0272 25.8787 32.6811 25.8787 32.3203V23.478C25.8843 23.119 26.0294 22.7762 26.2833 22.5223C26.5372 22.2684 26.88 22.1233 27.239 22.1177C27.4694 22.1114 27.6973 22.1674 27.8984 22.28C28.0996 22.3925 28.2666 22.5574 28.3817 22.757C29.1297 22.3331 29.9759 22.113 30.8357 22.1187C31.6955 22.1244 32.5387 22.3557 33.2811 22.7895C34.0234 23.2233 34.6388 23.8445 35.0658 24.5908C35.4927 25.337 35.7163 26.1824 35.714 27.0422Z" fill="#EDE6F2"/>
</svg>
