<svg width="28" height="28" viewBox="0 0 28 28" fill="none" xmlns="http://www.w3.org/2000/svg">
<g clip-path="url(#clip0_2641_5770)">
<path d="M25.375 0.656351H2.625C2.10882 0.651098 1.61163 0.85083 1.24254 1.21172C0.873449 1.57261 0.662596 2.06518 0.65625 2.58135V25.4232C0.663744 25.9386 0.875101 26.4301 1.24407 26.79C1.61304 27.15 2.10957 27.3491 2.625 27.3438H25.375C25.8912 27.3479 26.3881 27.1475 26.757 26.7864C27.1259 26.4253 27.3368 25.9328 27.3438 25.4167V2.57479C27.3345 2.06013 27.1226 1.56991 26.7539 1.21068C26.3853 0.851442 25.8897 0.652234 25.375 0.656351Z" fill="#0076B2"/>
<path d="M4.60602 10.6602H8.56758V23.4067H4.60602V10.6602ZM6.58789 4.31641C7.04226 4.31641 7.48643 4.45117 7.86419 4.70365C8.24196 4.95613 8.53636 5.31498 8.71014 5.73481C8.88392 6.15464 8.92927 6.61657 8.84047 7.06218C8.75167 7.50779 8.53269 7.91705 8.21125 8.23819C7.88981 8.55933 7.48034 8.77791 7.03465 8.86629C6.58895 8.95467 6.12706 8.90887 5.7074 8.73469C5.28774 8.56051 4.92917 8.26577 4.67705 7.88776C4.42493 7.50976 4.29058 7.06547 4.29102 6.61109C4.2916 6.0023 4.53384 5.41865 4.96453 4.98837C5.39521 4.5581 5.9791 4.31641 6.58789 4.31641ZM11.0526 10.6602H14.8501V12.4102H14.9026C15.432 11.4083 16.7226 10.3517 18.6498 10.3517C22.6616 10.343 23.4054 12.9833 23.4054 16.4067V23.4067H19.4438V17.2052C19.4438 15.7286 19.4176 13.8277 17.3854 13.8277C15.3532 13.8277 15.0076 15.4377 15.0076 17.1089V23.4067H11.0526V10.6602Z" fill="white"/>
</g>
<defs>
<clipPath id="clip0_2641_5770">
<rect width="28" height="28" fill="white"/>
</clipPath>
</defs>
</svg>
