<svg width="12" height="12" viewBox="0 0 12 12" fill="none" xmlns="http://www.w3.org/2000/svg">
<g clip-path="url(#clip0_2803_4224)">
<path d="M10.9389 0H0.980451C0.503414 0 0.117676 0.376609 0.117676 0.842233V10.8418C0.117676 11.3074 0.503414 11.6863 0.980451 11.6863H10.9389C11.4159 11.6863 11.804 11.3074 11.804 10.844V0.842233C11.804 0.376609 11.4159 0 10.9389 0ZM3.58476 9.95844H1.85007V4.38007H3.58476V9.95844ZM2.71742 3.62001C2.16049 3.62001 1.71084 3.17036 1.71084 2.61572C1.71084 2.06108 2.16049 1.61143 2.71742 1.61143C3.27206 1.61143 3.7217 2.06108 3.7217 2.61572C3.7217 3.16808 3.27206 3.62001 2.71742 3.62001ZM10.0761 9.95844H8.34372V7.24686C8.34372 6.60092 8.3323 5.76782 7.44214 5.76782C6.54056 5.76782 6.40361 6.4731 6.40361 7.20121V9.95844H4.6735V4.38007H6.33514V5.14242H6.35796C6.58849 4.70418 7.15455 4.24084 7.99678 4.24084C9.75201 4.24084 10.0761 5.39577 10.0761 6.89764V9.95844Z" fill="#5E5E5E"/>
</g>
<defs>
<clipPath id="clip0_2803_4224">
<rect width="11.6863" height="11.6863" fill="white" transform="translate(0.117676)"/>
</clipPath>
</defs>
</svg>
