<svg width="49" height="49" viewBox="0 0 49 49" fill="none" xmlns="http://www.w3.org/2000/svg">
<path d="M21.4279 21.4258C20.6103 22.2391 20.1488 23.3434 20.1445 24.4966C20.1445 25.6514 20.6033 26.7589 21.4198 27.5755C22.2364 28.392 23.3439 28.8508 24.4987 28.8508C25.6519 28.8465 26.7562 28.385 27.5695 27.5674" stroke="#4B0081" stroke-width="3.5" stroke-linecap="round" stroke-linejoin="round"/>
<path d="M24.5 11.4375C21.9165 11.4375 19.391 12.2036 17.2429 13.6389C15.0948 15.0743 13.4205 17.1143 12.4318 19.5012C11.4432 21.8881 11.1845 24.5145 11.6885 27.0484C12.1925 29.5822 13.4366 31.9098 15.2634 33.7366C17.0902 35.5634 19.4178 36.8075 21.9516 37.3115C24.4855 37.8155 27.1119 37.5568 29.4988 36.5682C31.8857 35.5795 33.9258 33.9053 35.3611 31.7571C36.7964 29.609 37.5625 27.0835 37.5625 24.5" stroke="#4B0081" stroke-width="3.5" stroke-linecap="round" stroke-linejoin="round"/>
<path d="M24.4994 2.72656C20.1935 2.72656 15.9843 4.0034 12.4041 6.39561C8.82394 8.78782 6.03351 12.188 4.38573 16.1661C2.73795 20.1442 2.30681 24.5215 3.14685 28.7447C3.98688 32.9678 6.06035 36.847 9.10505 39.8917C12.1498 42.9364 16.029 45.0099 20.2521 45.8499C24.4752 46.6899 28.8526 46.2588 32.8307 44.611C36.8088 42.9632 40.2089 40.1728 42.6011 36.5926C44.9934 33.0124 46.2702 28.8033 46.2702 24.4974M32.5775 16.4216L26.6764 22.3203" stroke="#4B0081" stroke-width="3.5" stroke-linecap="round" stroke-linejoin="round"/>
<path d="M44.9871 10.3891L37.5621 11.4341L38.6071 4.00913C38.6148 3.92288 38.5966 3.83631 38.5548 3.76048C38.513 3.68464 38.4496 3.62298 38.3726 3.58338C38.2956 3.54377 38.2086 3.52802 38.1226 3.53814C38.0366 3.54825 37.9556 3.58378 37.8899 3.64017L32.9674 8.53746C32.4618 9.04672 32.0899 9.67304 31.8848 10.3607C31.6797 11.0484 31.6477 11.7761 31.7917 12.4791L32.5755 16.4208L36.5171 17.2023C37.2202 17.3463 37.9479 17.3143 38.6355 17.1092C39.3232 16.9041 39.9496 16.5322 40.4588 16.0266L45.3538 11.1064C45.4104 11.0406 45.446 10.9593 45.4561 10.8731C45.4662 10.7868 45.4502 10.6996 45.4103 10.6225C45.3704 10.5454 45.3083 10.4819 45.2321 10.4404C45.1559 10.3988 45.069 10.3809 44.9826 10.3891" stroke="#4B0081" stroke-width="3.5" stroke-linecap="round" stroke-linejoin="round"/>
</svg>
