<svg width="51" height="51" viewBox="0 0 51 51" fill="none" xmlns="http://www.w3.org/2000/svg">
<path d="M25.5 34.6641V41.5391" stroke="#4B0081" stroke-width="3.5" stroke-linecap="round"/>
<path d="M33.5221 48.4167H17.4805L18.2596 44.53C18.3634 44.0107 18.6439 43.5433 19.0533 43.2074C19.4628 42.8715 19.9759 42.6878 20.5055 42.6875H30.4971C31.0267 42.6878 31.5399 42.8715 31.9493 43.2074C32.3587 43.5433 32.6392 44.0107 32.743 44.53L33.5221 48.4167Z" stroke="#4B0081" stroke-width="3.5" stroke-linecap="round" stroke-linejoin="round"/>
<path d="M41.5423 9.45703L43.7171 10.1812C45.9859 10.9374 47.1202 11.3156 47.7688 12.2162C48.4173 13.1168 48.4173 14.3154 48.4173 16.7033V16.8706C48.4173 18.8414 48.4173 19.8291 47.9429 20.6358C47.4686 21.4424 46.6046 21.9214 44.8813 22.8816L38.1048 26.6445M9.45898 9.45703L7.28419 10.1812C5.01544 10.9374 3.88107 11.3156 3.23253 12.2162C2.58398 13.1168 2.58398 14.3154 2.58398 16.7033V16.8706C2.58398 18.8414 2.58398 19.8291 3.05836 20.6358C3.53273 21.4424 4.39669 21.9214 6.12003 22.8816L12.8965 26.6445M23.5436 11.8014C24.4144 10.2362 24.8498 9.45703 25.5006 9.45703C26.1515 9.45703 26.5869 10.2362 27.4577 11.8014L27.6823 12.2047C27.9298 12.6493 28.0536 12.8693 28.2461 13.016C28.4409 13.1627 28.6815 13.2177 29.1627 13.3254L29.5981 13.4262C31.2894 13.8089 32.135 13.9991 32.3367 14.6454C32.5384 15.2916 31.9609 15.9677 30.8081 17.3152L30.5102 17.6635C30.1825 18.0462 30.0175 18.2364 29.9442 18.4747C29.8709 18.7131 29.8961 18.9674 29.9442 19.4785L29.99 19.9437C30.1642 21.7427 30.2513 22.6433 29.7265 23.042C29.1994 23.4408 28.4065 23.0764 26.8229 22.3477L26.415 22.1597C25.9636 21.9535 25.739 21.8504 25.5006 21.8504C25.2623 21.8504 25.0377 21.9535 24.5863 22.1597L24.1784 22.3477C22.5948 23.0787 21.8019 23.4408 21.2748 23.042C20.7477 22.6433 20.8371 21.7427 21.0113 19.9437L21.0571 19.4785C21.1052 18.9674 21.1304 18.7131 21.0571 18.4747C20.9838 18.2364 20.8188 18.0462 20.4911 17.6635L20.1931 17.3152C19.0404 15.9677 18.4629 15.2939 18.6646 14.6454C18.8663 13.9991 19.7119 13.8089 21.4031 13.4262L21.8386 13.3254C22.3198 13.2177 22.5604 13.1649 22.7552 13.016C22.9477 12.8693 23.0715 12.6493 23.319 12.2047L23.5436 11.8014Z" stroke="#4B0081" stroke-width="3.5"/>
<path d="M39.2498 48.4159H11.7498M36.9581 3.62756C38.6563 3.95068 39.6646 4.30818 40.5331 5.38068C41.6263 6.7236 41.569 8.17423 41.4521 11.0755C41.0396 21.5094 38.7021 34.6659 25.5021 34.6659C12.3021 34.6659 9.96231 21.5117 9.54522 11.0755C9.43064 8.17423 9.37335 6.72131 10.4619 5.38068C11.5527 4.03777 12.8567 3.81777 15.4669 3.37777C18.7833 2.83451 22.1392 2.56852 25.4998 2.58256C27.1468 2.58561 28.6745 2.63756 30.0831 2.73839" stroke="#4B0081" stroke-width="3.5" stroke-linecap="round"/>
</svg>
