<svg width="56" height="51" viewBox="0 0 56 51" fill="none" xmlns="http://www.w3.org/2000/svg">
<rect x="10.2402" y="7.86694" width="35.6557" height="35.6557" rx="17.8278" stroke="#EDE6F2" stroke-width="2.14793"/>
<g clip-path="url(#clip0_2744_1406)">
<path d="M37.5191 17.9657C37.5191 17.9657 35.7853 18.9898 34.8213 19.2802C34.3039 18.6852 33.6162 18.2635 32.8513 18.0721C32.0863 17.8808 31.2811 17.9289 30.5444 18.2101C29.8078 18.4912 29.1752 18.9919 28.7323 19.6443C28.2895 20.2966 28.0576 21.0693 28.0682 21.8577V22.7169C26.5583 22.7561 25.0622 22.4212 23.7131 21.7421C22.3639 21.0631 21.2037 20.0609 20.3357 18.8248C20.3357 18.8248 16.899 26.5574 24.6315 29.9941C22.8621 31.1952 20.7542 31.7974 18.6173 31.7124C26.3499 36.0083 35.8008 31.7124 35.8008 21.832C35.8002 21.5925 35.7773 21.3548 35.732 21.1188C36.6084 20.2545 37.5191 17.9657 37.5191 17.9657Z" stroke="#EDE6F2" stroke-width="1.28876" stroke-linecap="round" stroke-linejoin="round"/>
</g>
<defs>
<clipPath id="clip0_2744_1406">
<rect width="20.6202" height="20.6202" fill="white" transform="translate(17.7579 15.3828)"/>
</clipPath>
</defs>
</svg>
