<svg width="55" height="55" viewBox="0 0 55 55" fill="none" xmlns="http://www.w3.org/2000/svg">
<path d="M18.9062 8.59375C15.522 8.59375 12.8219 11.0705 12.2461 14.288C8.99766 15.1061 6.17719 17.2219 4.94141 20.5717H4.88812L1.23578 30.8309C0.427673 32.4679 0.00495291 34.2682 0 36.0938C0 42.7195 5.40547 48.125 12.0312 48.125C18.0005 48.125 22.9745 43.7422 23.9009 38.0273C24.8553 38.9837 26.1489 39.5243 27.5 39.5312C28.8973 39.5312 30.1641 38.9469 31.0991 38.0273C32.0255 43.7405 36.9995 48.125 42.9688 48.125C49.5945 48.125 55 42.7195 55 36.0938C55 34.4214 54.6562 32.8178 54.0323 31.3672L50.1136 20.4102L50.0586 20.3569V20.3036C48.8039 17.2545 46.023 15.1267 42.7539 14.288C42.1764 11.0687 39.478 8.59375 36.0938 8.59375C32.9055 8.59375 30.3136 10.8023 29.5402 13.75H25.4581C24.6881 10.8023 22.0945 8.59375 18.9062 8.59375ZM18.9062 12.0312C20.9533 12.0312 22.3438 13.4217 22.3438 15.4688V17.1875H32.6562V15.4688C32.6562 13.4217 34.0467 12.0312 36.0938 12.0312C38.1408 12.0312 39.5312 13.4217 39.5312 15.4688V17.0259L41.0884 17.1875C43.6408 17.4556 45.8425 19.2345 46.8359 21.5377C46.8497 21.572 46.8755 21.6116 46.8892 21.6459L48.1783 25.2983C46.5578 24.4969 44.7765 24.0743 42.9688 24.0625C37.9397 24.0625 33.6428 27.1838 31.8502 31.582C31.3804 30.8559 30.7361 30.2591 29.9761 29.8463C29.2162 29.4334 28.3648 29.2177 27.5 29.2188C25.6953 29.2188 24.0694 30.152 23.1498 31.582C21.3572 27.1838 17.0603 24.0625 12.0312 24.0625C10.1922 24.0625 8.43906 24.4991 6.875 25.245L8.16406 21.7525V21.6992C9.16438 19.0403 11.2733 17.4625 13.9116 17.1875L15.4688 17.0259V15.4688C15.4688 13.4217 16.8592 12.0312 18.9062 12.0312ZM12.0312 27.5C16.7973 27.5 20.625 31.3277 20.625 36.0938C20.625 40.8598 16.7973 44.6875 12.0312 44.6875C7.26516 44.6875 3.4375 40.8598 3.4375 36.0938C3.4375 34.8786 3.74 33.7563 4.19031 32.7095C4.21609 32.6425 4.21609 32.5617 4.24187 32.4947C4.92508 31.0032 6.02249 29.7395 7.40346 28.854C8.78442 27.9685 10.3908 27.4985 12.0312 27.5ZM42.9688 27.5C47.7348 27.5 51.5625 31.3277 51.5625 36.0938C51.5625 40.8598 47.7348 44.6875 42.9688 44.6875C38.2027 44.6875 34.375 40.8598 34.375 36.0938C34.375 31.3277 38.2027 27.5 42.9688 27.5ZM27.5 32.6562C28.4677 32.6562 29.2188 33.4091 29.2188 34.375C29.2188 35.3409 28.4659 36.0938 27.5 36.0938C26.5341 36.0938 25.7812 35.3409 25.7812 34.375C25.7812 33.4091 26.5341 32.6562 27.5 32.6562Z" fill="#4B0081"/>
</svg>
