<svg width="252" height="183" viewBox="0 0 252 183" fill="none" xmlns="http://www.w3.org/2000/svg">
<path d="M251.269 53.8734C251.269 88.0818 238.053 120.889 214.528 145.078C191.004 169.267 159.098 182.856 125.829 182.856C92.5606 182.856 60.6547 169.267 37.1302 145.078C13.6058 120.889 0.389898 88.0818 0.389893 53.8734L125.829 53.8734H251.269Z" fill="#E4D9EC" fill-opacity="0.5"/>
<path d="M199.926 79.6485C199.926 99.2725 192.131 118.093 178.254 131.969C164.378 145.845 145.558 153.641 125.934 153.641C106.31 153.641 87.4897 145.845 73.6135 131.969C59.7372 118.093 51.9417 99.2725 51.9417 79.6485L125.934 79.6485H199.926Z" fill="#E4D9EC" fill-opacity="0.5"/>
</svg>
