<svg width="252" height="192" viewBox="0 0 252 192" fill="none" xmlns="http://www.w3.org/2000/svg">
<path d="M0.813023 128.982C0.81302 94.7737 14.0289 61.9664 37.5533 37.7775C61.0778 13.5885 92.9837 -0.000718547 126.252 -0.000721456C159.521 -0.000724364 191.427 13.5885 214.951 37.7774C238.476 61.9664 251.692 94.7737 251.692 128.982L126.252 128.982L0.813023 128.982Z" fill="#E4D9EC" fill-opacity="0.5"/>
<path d="M52.3634 112.664C52.3633 93.04 60.1589 74.2198 74.0352 60.3436C87.9114 46.4673 106.732 38.6717 126.356 38.6717C145.98 38.6717 164.8 46.4673 178.676 60.3435C192.552 74.2198 200.348 93.04 200.348 112.664L126.356 112.664L52.3634 112.664Z" fill="#E4D9EC" fill-opacity="0.5"/>
</svg>
