<svg width="141" height="60" viewBox="0 0 141 60" fill="none" xmlns="http://www.w3.org/2000/svg">
<path d="M140.236 57.2527C140.691 57.1225 140.954 56.6481 140.824 56.1929L138.703 48.7759C138.573 48.3208 138.099 48.0573 137.643 48.1874C137.188 48.3176 136.925 48.7921 137.055 49.2472L138.94 55.8401L132.347 57.7253C131.892 57.8555 131.629 58.33 131.759 58.7851C131.889 59.2403 132.364 59.5037 132.819 59.3736L140.236 57.2527ZM5.11528 56.944C5.58413 56.8786 5.9112 56.4455 5.84581 55.9767C5.78042 55.5079 5.34733 55.1808 4.87848 55.2462L4.99688 56.0951L5.11528 56.944ZM14.0035 52.3101C13.588 52.537 13.4352 53.0578 13.6622 53.4732C13.8891 53.8887 14.4099 54.0415 14.8253 53.8146L14.4144 53.0623L14.0035 52.3101ZM22.7083 47.2967C23.0144 46.9356 22.9698 46.3947 22.6086 46.0886C22.2475 45.7825 21.7066 45.8271 21.4006 46.1883L22.0544 46.7425L22.7083 47.2967ZM26.6611 37.9928C26.4501 38.4166 26.6225 38.9312 27.0462 39.1422C27.4699 39.3533 27.9845 39.1809 28.1956 38.7572L27.4284 38.375L26.6611 37.9928ZM32.0625 29.4618C32.2219 29.0161 31.9898 28.5255 31.5441 28.3661C31.0984 28.2066 30.6078 28.4387 30.4483 28.8844L31.2554 29.1731L32.0625 29.4618ZM33.6306 19.4486C33.48 19.8974 33.7217 20.3833 34.1704 20.5339C34.6192 20.6846 35.1051 20.4429 35.2558 19.9941L34.4432 19.7214L33.6306 19.4486ZM38.7944 10.784C38.9978 10.3565 38.8162 9.84507 38.3887 9.64165C37.9613 9.43823 37.4499 9.61985 37.2464 10.0473L38.0204 10.4156L38.7944 10.784ZM43.5556 1.90714C43.1594 2.16625 43.0483 2.69746 43.3074 3.09364C43.5665 3.48982 44.0977 3.60094 44.4939 3.34183L44.0247 2.62449L43.5556 1.90714ZM53.381 2.39526C53.8382 2.51775 54.3082 2.24635 54.4307 1.78908C54.5532 1.33182 54.2818 0.861836 53.8245 0.739352L53.6028 1.56731L53.381 2.39526ZM63.088 5.02837C62.6854 4.77933 62.1571 4.9038 61.9081 5.30639C61.6591 5.70897 61.7835 6.23722 62.1861 6.48626L62.637 5.75731L63.088 5.02837ZM70.7462 12.4215C71.132 12.6958 71.6671 12.6054 71.9414 12.2196C72.2157 11.8338 72.1253 11.2986 71.7395 11.0243L71.2428 11.7229L70.7462 12.4215ZM80.6875 17.322C80.299 17.0514 79.7648 17.1469 79.4942 17.5353C79.2236 17.9237 79.3191 18.458 79.7075 18.7286L80.1975 18.0253L80.6875 17.322ZM88.7194 24.941C89.1105 25.2077 89.6438 25.1069 89.9105 24.7158C90.1772 24.3247 90.0764 23.7915 89.6853 23.5247L89.2024 24.2329L88.7194 24.941ZM98.7514 29.6393C98.3575 29.3767 97.8253 29.483 97.5627 29.8769C97.3001 30.2708 97.4065 30.8029 97.8003 31.0656L98.2758 30.3524L98.7514 29.6393ZM106.942 37.0886C107.339 37.3468 107.87 37.2345 108.128 36.8377C108.386 36.4409 108.274 35.9099 107.877 35.6518L107.41 36.3702L106.942 37.0886ZM117.076 41.5589C116.676 41.3056 116.147 41.4245 115.894 41.8245C115.64 42.2244 115.759 42.7539 116.159 43.0072L116.618 42.2831L117.076 41.5589ZM125.453 48.8027C125.856 49.0502 126.384 48.9237 126.631 48.5202C126.879 48.1167 126.752 47.5889 126.349 47.3414L125.901 48.072L125.453 48.8027ZM135.712 52.9695C135.304 52.7299 134.779 52.8665 134.539 53.2748C134.299 53.683 134.436 54.2083 134.844 54.4479L135.278 53.7087L135.712 52.9695ZM-4.84572e-06 56.4286L-3.16896e-06 57.2857C1.80196 57.2857 3.50472 57.1687 5.11528 56.944L4.99688 56.0951L4.87848 55.2462C3.35109 55.4592 1.72765 55.5714 -6.52247e-06 55.5714L-4.84572e-06 56.4286ZM14.4144 53.0623L14.8253 53.8146C17.9348 52.116 20.519 49.8796 22.7083 47.2967L22.0544 46.7425L21.4006 46.1883C19.3278 48.6337 16.903 50.7262 14.0035 52.3101L14.4144 53.0623ZM27.4284 38.375L28.1956 38.7572C29.6876 35.7619 30.9375 32.6065 32.0625 29.4618L31.2554 29.1731L30.4483 28.8844C29.3352 31.9962 28.1112 35.0818 26.6611 37.9928L27.4284 38.375ZM34.4432 19.7214L35.2558 19.9941C36.3894 16.6171 37.5114 13.4799 38.7944 10.784L38.0204 10.4156L37.2464 10.0473C35.9156 12.8439 34.7661 16.066 33.6306 19.4486L34.4432 19.7214ZM44.0247 2.62449L44.4939 3.34183C46.7419 1.87162 49.5644 1.37296 53.381 2.39526L53.6028 1.56731L53.8245 0.739352C49.6278 -0.384801 46.2844 0.122467 43.5556 1.90714L44.0247 2.62449ZM62.637 5.75731L62.1861 6.48626C63.4807 7.28711 64.8464 8.2014 66.2882 9.23654L66.7881 8.54027L67.288 7.84399C65.8184 6.78888 64.42 5.85235 63.088 5.02837L62.637 5.75731ZM66.7881 8.54027L66.2882 9.23654C67.7923 10.3165 69.2785 11.3781 70.7462 12.4215L71.2428 11.7229L71.7395 11.0243C70.2739 9.98246 68.79 8.92234 67.288 7.84399L66.7881 8.54027ZM80.1975 18.0253L79.7075 18.7286C82.811 20.8906 85.8168 22.9614 88.7194 24.941L89.2024 24.2329L89.6853 23.5247C86.7874 21.5483 83.7862 19.4807 80.6875 17.322L80.1975 18.0253ZM98.2758 30.3524L97.8003 31.0656C101.008 33.2047 104.059 35.2124 106.942 37.0886L107.41 36.3702L107.877 35.6518C104.999 33.779 101.954 31.7748 98.7514 29.6393L98.2758 30.3524ZM116.618 42.2831L116.159 43.0072C119.608 45.1916 122.715 47.1234 125.453 48.8027L125.901 48.072L126.349 47.3414C123.618 45.6663 120.518 43.7389 117.076 41.5589L116.618 42.2831ZM135.278 53.7087L134.844 54.4479C136.392 55.3564 137.575 56.0381 138.373 56.4931C138.771 56.7206 139.073 56.8914 139.276 57.0055C139.378 57.0626 139.454 57.1055 139.506 57.1342C139.531 57.1486 139.551 57.1594 139.564 57.1667C139.57 57.1704 139.575 57.1731 139.579 57.175C139.58 57.1759 139.582 57.1766 139.582 57.1771C139.583 57.1774 139.583 57.1776 139.583 57.1777C139.584 57.1778 139.584 57.1778 139.584 57.1779C139.584 57.1779 139.584 57.1779 139.584 57.1779C139.584 57.1779 139.584 57.1779 140 56.4286C140.416 55.6792 140.416 55.6792 140.416 55.6792C140.416 55.6792 140.416 55.6792 140.416 55.6792C140.416 55.6792 140.416 55.6792 140.416 55.6791C140.416 55.679 140.416 55.6789 140.415 55.6787C140.414 55.6783 140.413 55.6777 140.412 55.6768C140.409 55.6752 140.404 55.6726 140.398 55.6692C140.386 55.6623 140.367 55.6519 140.342 55.6379C140.292 55.61 140.217 55.5679 140.117 55.5116C139.917 55.3991 139.618 55.23 139.222 55.0042C138.431 54.5526 137.254 53.8744 135.712 52.9695L135.278 53.7087Z" fill="#4B0081"/>
</svg>
