<svg width="133" height="25" viewBox="0 0 133 25" fill="none" xmlns="http://www.w3.org/2000/svg">
<g clip-path="url(#clip0_2877_447)">
<path d="M38.1458 5.92687C38.1458 9.18119 35.5045 11.8225 32.2501 11.8225H30.9565C29.1851 11.8225 27.4859 12.5256 26.2328 13.7787C25.5432 14.4683 25.1601 15.4013 25.1601 16.3749V19.0793C25.1601 22.3337 22.5188 24.975 19.2644 24.975C16.0101 24.975 13.3688 22.3337 13.3688 19.0793V18.5024C13.3688 16.731 12.6657 15.0317 11.4126 13.7787C10.1596 12.5256 8.46031 11.8225 6.68892 11.8225H5.89562C2.64131 11.8225 0 9.18119 0 5.92687C0 2.67256 2.64131 0.03125 5.89562 0.03125C9.14993 0.03125 11.7912 2.67256 11.7912 5.92687V6.45874C11.7912 8.23013 12.4944 9.92941 13.7474 11.1825L13.788 11.223C15.0411 12.4761 16.7403 13.1792 18.5117 13.1792H19.1292C20.9006 13.1792 22.5999 12.4761 23.8529 11.223L24.3938 10.6821C25.6469 9.42909 26.35 7.72982 26.35 5.95843V5.92687C26.359 2.67256 28.9958 0.03125 32.2501 0.03125C35.5045 0.03125 38.1458 2.67256 38.1458 5.92687Z" fill="#4B0081"/>
<path d="M42.2837 4.22266H57.5411V6.64311H51.2083V20.5258H48.6165V6.64311H42.2837V4.22266Z" fill="black"/>
<path d="M61.7419 20.8108C59.7947 20.8108 58.2577 20.2879 57.1353 19.2467C56.013 18.2055 55.4541 16.7271 55.4541 14.816C55.4541 12.9049 55.9905 11.3093 57.0587 10.2996C58.127 9.28998 59.6595 8.78516 61.6517 8.78516C63.644 8.78516 65.2351 9.3035 66.3529 10.3357C67.4707 11.3679 68.0296 12.8688 68.0296 14.834V15.6048H57.8971C57.8971 16.5603 58.2532 17.3086 58.9698 17.8449C59.6865 18.3813 60.624 18.6518 61.7824 18.6518C62.8056 18.6518 63.6304 18.4805 64.257 18.1424C64.8835 17.7999 65.2801 17.3131 65.4469 16.6775H67.8448C67.322 19.4315 65.2846 20.8063 61.7374 20.8063L61.7419 20.8108ZM57.8746 13.91L65.5145 13.9326C65.5145 13.0131 65.1359 12.2874 64.3832 11.7555C63.6304 11.2191 62.7245 10.9532 61.6698 10.9532C60.615 10.9532 59.664 11.1966 58.9473 11.6879C58.2306 12.1747 57.8746 12.9184 57.8746 13.91Z" fill="black"/>
<path d="M68.9626 14.822C68.9626 13.898 69.1384 13.0551 69.49 12.2979C69.8416 11.5407 70.3238 10.9141 70.9323 10.4183C71.5408 9.92251 72.253 9.53938 73.0643 9.26894C73.8757 8.9985 74.7456 8.86328 75.6696 8.86328C76.3051 8.86328 76.9316 8.91737 77.5491 9.02104C78.1667 9.12922 78.7752 9.305 79.3746 9.55741C79.9741 9.80983 80.497 10.1118 80.9477 10.4724C81.3984 10.833 81.768 11.2882 82.052 11.8381C82.336 12.388 82.4802 12.9965 82.4892 13.6636H79.884C79.8073 13.2174 79.6315 12.8252 79.3566 12.4917C79.0816 12.1582 78.7436 11.9012 78.3424 11.7255C77.9458 11.5497 77.5401 11.4144 77.1255 11.3288C76.7108 11.2432 76.2916 11.1981 75.8679 11.1981C74.4346 11.1981 73.3483 11.5452 72.6046 12.2348C71.8609 12.9244 71.4913 13.7898 71.4913 14.8265C71.4913 15.3268 71.5769 15.7911 71.7437 16.2193C71.9104 16.6475 72.1629 17.0351 72.5009 17.3777C72.839 17.7247 73.2897 17.9952 73.8576 18.189C74.4255 18.3873 75.0836 18.4865 75.8228 18.4865C76.2375 18.4865 76.6567 18.4459 77.0714 18.3603C77.486 18.2792 77.8962 18.1484 78.2929 17.9681C78.6895 17.7878 79.0321 17.5354 79.3205 17.2019C79.609 16.8683 79.7938 16.4807 79.8794 16.0435H82.4847C82.4712 16.7241 82.3179 17.3461 82.0295 17.9005C81.741 18.4594 81.3714 18.9147 80.9161 19.2708C80.4609 19.6269 79.938 19.9243 79.3431 20.1677C78.7481 20.4111 78.1531 20.5824 77.5627 20.6861C76.9722 20.7897 76.3772 20.8393 75.7778 20.8393C74.4661 20.8393 73.3032 20.614 72.2936 20.1677C71.2839 19.7215 70.4726 19.0364 69.8641 18.1169C69.2556 17.1974 68.9536 16.0976 68.9536 14.8265L68.9626 14.822Z" fill="black"/>
<path d="M85.631 14.2605V20.5258H83.0708V4.22266H85.631V14.265C85.631 13.4087 85.7662 12.6199 86.0411 11.9077C86.3161 11.191 86.6767 10.6051 87.1319 10.1453C87.5872 9.68557 88.101 9.334 88.6734 9.08159C89.2459 8.83368 89.8408 8.70748 90.4538 8.70748C92.0675 8.70748 93.3566 9.21681 94.3212 10.231C95.2857 11.2451 95.7635 12.5838 95.7635 14.247V20.5348H93.2033V14.2921C93.2033 13.3996 92.8608 12.6199 92.1802 11.9573C91.4996 11.2947 90.7063 10.9612 89.8048 10.9612C88.6239 10.9612 87.6322 11.2812 86.8299 11.9257C86.0276 12.5703 85.631 13.3501 85.631 14.2696V14.2605Z" fill="black"/>
<path d="M96.9219 4.22266H99.5136V18.1053H109.475V20.5258H96.9219V4.22266Z" fill="black"/>
<path d="M112.215 6.64463C111.769 6.64463 111.391 6.49589 111.089 6.1939C110.787 5.89641 110.633 5.51779 110.633 5.06255C110.633 4.60731 110.787 4.22869 111.089 3.9312C111.391 3.63372 111.765 3.48047 112.215 3.48047C112.666 3.48047 113.027 3.63372 113.329 3.93571C113.631 4.2377 113.784 4.61182 113.784 5.06255C113.784 5.51329 113.635 5.8874 113.342 6.18939C113.045 6.49138 112.671 6.64463 112.215 6.64463ZM110.94 20.5273V8.90733H113.545V20.5273H110.94Z" fill="black"/>
<path d="M119.125 6.55296C117.647 6.55296 116.907 6.92707 116.907 7.6798C116.907 8.14856 117.155 8.50465 117.66 8.73903C118.16 8.97341 118.837 9.0906 119.684 9.0906H122.424V11.3082H119.774V20.5303H117.214V11.3082H114.6V9.0906H118.282C115.826 9.0906 114.6 8.30182 114.6 6.72424C114.6 5.94897 114.893 5.34048 115.474 4.89425C116.055 4.44802 116.993 4.22266 118.282 4.22266H122.42V6.55296H119.12H119.125Z" fill="black"/>
<path d="M128.595 7.03975C128.595 7.80601 128.847 8.33787 129.357 8.63536C129.866 8.93284 130.695 9.08609 131.845 9.08609H132.936V11.3037H128.613V16.2167C128.613 17.4743 129.118 18.1053 130.127 18.1053H132.936V20.5258H129.352C128.288 20.5258 127.473 20.1877 126.9 19.5116C126.328 18.8355 126.039 17.907 126.039 16.7261V11.3037H123.574V9.08609H130.862C130.281 9.08609 129.839 9.08609 129.541 9.07257C129.244 9.06356 128.888 9.04102 128.473 9.00045C128.059 8.95989 127.752 8.89679 127.558 8.81115C127.364 8.73001 127.148 8.60831 126.905 8.45506C126.661 8.30181 126.49 8.10349 126.386 7.8646C126.283 7.62571 126.197 7.33273 126.125 6.99017C126.053 6.64761 126.017 6.23744 126.017 5.76868V4.22266H128.586V7.04426L128.595 7.03975Z" fill="black"/>
</g>
<defs>
<clipPath id="clip0_2877_447">
<rect width="132.94" height="24.9392" fill="white" transform="translate(0 0.03125)"/>
</clipPath>
</defs>
</svg>
