<svg width="39" height="25" viewBox="0 0 39 25" fill="none" xmlns="http://www.w3.org/2000/svg">
<path d="M38.1458 5.92687C38.1458 9.18119 35.5045 11.8225 32.2501 11.8225H30.9565C29.1851 11.8225 27.4859 12.5256 26.2328 13.7787C25.5432 14.4683 25.1601 15.4013 25.1601 16.3749V19.0793C25.1601 22.3337 22.5188 24.975 19.2644 24.975C16.0101 24.975 13.3688 22.3337 13.3688 19.0793V18.5024C13.3688 16.731 12.6657 15.0317 11.4126 13.7787C10.1596 12.5256 8.46031 11.8225 6.68892 11.8225H5.89562C2.64131 11.8225 0 9.18119 0 5.92687C0 2.67256 2.64131 0.03125 5.89562 0.03125C9.14994 0.03125 11.7912 2.67256 11.7912 5.92687V6.45874C11.7912 8.23013 12.4944 9.92941 13.7474 11.1825L13.788 11.223C15.0411 12.4761 16.7403 13.1792 18.5117 13.1792H19.1292C20.9006 13.1792 22.5999 12.4761 23.8529 11.223L24.3938 10.6821C25.6469 9.42909 26.35 7.72982 26.35 5.95843V5.92687C26.359 2.67256 28.9958 0.03125 32.2501 0.03125C35.5045 0.03125 38.1458 2.67256 38.1458 5.92687Z" fill="#4B0081"/>
</svg>
